Coordinates
version=1
nRows=58
nColumns=11
inDegrees=yes

Units are S.I. units (second, meters, Newtons, ...)
If the header above contains a line with 'inDegrees', this indicates whether rotational values are in degrees (yes) or radians (no).

endheader
time	pelvis_tilt	pelvis_tx	pelvis_ty	hip_flexion_l	hip_flexion_r	knee_angle_l	knee_angle_r	ankle_angle_l	ankle_angle_r	lumbar_extension
      2.12000000	      4.44237260	     -0.75415622	      0.88727195	    -15.09063739	     29.93899077	    -13.19115414	    -20.50807002	     17.83833907	      1.89100350	    -19.45990631
      2.13000000	      4.64043820	     -0.74241455	      0.88418961	    -15.81457647	     29.59959560	    -13.84245574	    -20.04110055	     18.43432439	      1.66910728	    -19.52641272
      2.14000000	      4.83892131	     -0.73046940	      0.88115930	    -16.51329332	     29.27869622	    -14.59520209	    -19.97139567	     18.73428869	      1.42777279	    -19.50205372
      2.15000000	      4.92970840	     -0.71818466	      0.87792303	    -17.05612280	     29.03993685	    -15.43645648	    -20.18503942	     19.19834567	      0.56058408	    -19.34498865
      2.16000000	      4.72490330	     -0.70600193	      0.87458946	    -17.17349964	     29.06703123	    -16.48337533	    -20.66383631	     19.43332517	     -1.32962965	    -18.86662938
      2.17000000	      4.24418370	     -0.69461265	      0.87176468	    -16.83152041	     29.51125873	    -17.67881022	    -21.84525478	     19.43025689	     -3.35828226	    -18.20870690
      2.18000000	      3.58104891	     -0.68326689	      0.86917145	    -16.27732936	     30.55439850	    -18.87663885	    -24.01063172	     19.12731468	     -2.89891320	    -17.36937130
      2.19000000	      2.88906853	     -0.67195652	      0.86713435	    -15.66289628	     31.85594584	    -20.04249169	    -26.06061480	     18.60438595	     -2.64710096	    -16.51402757
      2.20000000	      2.18990654	     -0.66071117	      0.86562393	    -14.97957529	     33.06799780	    -21.31316900	    -27.81570109	     17.92038221	     -2.98607210	    -15.69151237
      2.21000000	      1.63638827	     -0.64938294	      0.86489642	    -14.48868682	     33.80852739	    -22.47283912	    -29.30520821	     16.53701638	     -3.84842949	    -15.05092789
      2.22000000	      1.12766241	     -0.63807650	      0.86451432	    -13.85807912	     34.23593325	    -23.96720575	    -30.49606509	     15.08357335	     -4.07912943	    -14.45767390
      2.23000000	      0.59832110	     -0.62682696	      0.86472621	    -13.20632275	     34.36376151	    -25.34542736	    -31.09897320	     13.86412938	     -3.73647672	    -13.86279905
      2.24000000	      0.14668656	     -0.61507199	      0.86522788	    -12.57459908	     34.22340975	    -26.75594754	    -31.46728709	     11.91378816	     -3.35455368	    -13.31910029
      2.25000000	     -0.35289578	     -0.60337608	      0.86582368	    -11.74412481	     34.07776176	    -28.36409551	    -31.77958819	     10.06271938	     -2.89014492	    -12.69645662
      2.26000000	     -0.90764216	     -0.59196699	      0.86649993	    -10.71192760	     33.99879159	    -30.09743915	    -32.09111962	      8.10394695	     -2.25210611	    -12.05018477
      2.27000000	     -1.23714594	     -0.58025576	      0.86787667	     -9.88751511	     33.64081098	    -31.72951665	    -32.38342878	      5.69205461	     -1.69280878	    -11.61248065
      2.28000000	     -1.61986019	     -0.56889774	      0.86931628	     -8.81654527	     33.39695805	    -33.69167942	    -32.69937013	      3.42064600	     -1.11047628	    -11.12235129
      2.29000000	     -1.91177609	     -0.55766480	      0.87104101	     -7.74507554	     33.05848846	    -35.68762554	    -33.00437356	      0.92013126	     -0.46839168	    -10.70378145
      2.30000000	     -2.11624850	     -0.54641794	      0.87301357	     -6.60832564	     32.60137361	    -37.77225691	    -33.25782091	     -1.71298344	      0.19222009	    -10.35042103
      2.31000000	     -2.14827139	     -0.53505683	      0.87525482	     -5.51804344	     31.88024140	    -39.97833565	    -33.39673808	     -4.42535127	      0.83813502	    -10.16296126
      2.32000000	     -2.05814422	     -0.52395970	      0.87751646	     -4.35243758	     31.04069485	    -42.35606678	    -33.51476032	     -7.29176400	      1.50547468	    -10.10148563
      2.33000000	     -1.86452708	     -0.51292872	      0.87999589	     -3.16406637	     30.00476442	    -44.81017296	    -33.50048266	     -9.84390762	      2.21992797	    -10.11929119
      2.34000000	     -1.62378452	     -0.50205177	      0.88264663	     -1.92455155	     28.81632041	    -47.18795771	    -33.27135277	    -12.10880031	      2.81036578	    -10.15303606
      2.35000000	     -1.31931838	     -0.49141444	      0.88545332	     -0.64658581	     27.47157874	    -49.59472997	    -32.85649608	    -13.71406786	      3.43891418	    -10.25173570
      2.36000000	     -0.98642336	     -0.48077139	      0.88845311	      0.63168433	     25.98061336	    -51.88108609	    -32.22970795	    -14.69735021	      3.86058395	    -10.31405357
      2.37000000	     -0.77554988	     -0.47033715	      0.89122500	      2.25127463	     24.58683290	    -54.31531082	    -31.49927290	    -15.26929916	      4.16737508	    -10.23149647
      2.38000000	     -0.63040730	     -0.46016744	      0.89426824	      3.98577727	     23.19870857	    -56.54271374	    -30.60472327	    -16.13242952	      4.42136477	    -10.08616462
      2.39000000	     -0.54164878	     -0.44995139	      0.89725773	      5.85239373	     21.82772657	    -58.60413916	    -29.63070181	    -17.55715409	      4.57875076	     -9.86227533
      2.40000000	     -0.48627396	     -0.43985524	      0.90004216	      7.89404076	     20.49204266	    -60.75484194	    -28.62806961	    -18.30023380	      4.73734312	     -9.62260407
      2.41000000	     -0.37363346	     -0.42965198	      0.90300423	      9.85801789	     19.01530837	    -62.66663960	    -27.48417883	    -19.18827759	      4.85979343	     -9.43068665
      2.42000000	     -0.12671824	     -0.41949938	      0.90600715	     11.72689914	     17.36499708	    -64.52234920	    -26.26437960	    -19.47379525	      5.01789719	     -9.43506644
      2.43000000	      0.15225477	     -0.40948772	      0.90887857	     13.62682704	     15.70996803	    -66.30493539	    -25.08876694	    -19.48220388	      5.07303391	     -9.50725107
      2.44000000	      0.49613803	     -0.39945696	      0.91164828	     15.45283642	     13.93504643	    -67.96357042	    -23.76844008	    -18.88830218	      5.13726134	     -9.67028106
      2.45000000	      0.82576772	     -0.38963012	      0.91418441	     17.32055613	     12.21022808	    -69.46812652	    -22.54081598	    -18.44303476	      5.31093810	     -9.84610467
      2.46000000	      1.38705415	     -0.37942194	      0.91699387	     18.84459831	     10.12437604	    -70.75338818	    -21.12230176	    -17.66742160	      5.33742306	    -10.26639877
      2.47000000	      1.74252084	     -0.36970894	      0.91917674	     20.64108239	      8.36062816	    -71.92109076	    -19.82793223	    -17.02874249	      5.32275954	    -10.50605180
      2.48000000	      2.29034504	     -0.35992602	      0.92149044	     22.16431911	      6.35528278	    -72.91744277	    -18.47181964	    -16.28470724	      5.39641255	    -10.98955103
      2.49000000	      2.60138360	     -0.35041378	      0.92301077	     23.95894697	      4.74164978	    -73.81868121	    -17.33664188	    -15.31752752	      5.51337841	    -11.22829991
      2.50000000	      3.12265917	     -0.34076900	      0.92484594	     25.37828118	      2.73186644	    -74.41572719	    -15.84645290	    -14.54925979	      5.39576059	    -11.71620476
      2.51000000	      3.75257756	     -0.33097638	      0.92663029	     26.60183802	      0.72017344	    -74.72017546	    -14.63039880	    -14.04314341	      5.36714749	    -12.31467045
      2.52000000	      4.16622476	     -0.32152234	      0.92762821	     28.00726965	     -0.98946027	    -74.88703079	    -13.50293293	    -13.31143673	      5.52795007	    -12.72747880
      2.53000000	      4.45767469	     -0.31243702	      0.92831601	     29.45329089	     -2.45143329	    -74.70274944	    -12.53119173	    -12.95959460	      5.57452196	    -13.06647296
      2.54000000	      5.05761241	     -0.30304618	      0.92930722	     30.33546892	     -4.29738336	    -74.14661619	    -11.50706321	    -12.55547479	      5.64151156	    -13.70803864
      2.55000000	      5.43600330	     -0.29393602	      0.92960118	     31.34829827	     -5.76619478	    -73.22515145	    -10.69142142	    -11.99023902	      5.69864917	    -14.12810829
      2.56000000	      5.96908436	     -0.28462563	      0.93003338	     31.93600115	     -7.35098830	    -71.81770199	    -10.00350252	    -11.43701672	      5.77088657	    -14.70072273
      2.57000000	      6.26923890	     -0.27566026	      0.92973303	     32.62082507	     -8.46306052	    -70.12316326	     -9.70665889	    -10.64311857	      5.96710747	    -15.03236237
      2.58000000	      6.66337138	     -0.26643233	      0.92948247	     32.94030892	     -9.59734624	    -68.05563734	     -9.57522963	     -9.69108049	      6.30718312	    -15.41305813
      2.59000000	      6.96384353	     -0.25743203	      0.92890714	     33.14768294	    -10.53338900	    -65.60175189	     -9.60382903	     -9.24140753	      6.56535524	    -15.73938105
      2.60000000	      7.23683707	     -0.24819608	      0.92805636	     33.13037564	    -11.31468192	    -62.83711442	     -9.89046716	     -8.44825441	      7.01183373	    -15.97972934
      2.61000000	      7.43230029	     -0.23915471	      0.92699195	     32.99395035	    -11.84139699	    -59.72619266	    -10.46107234	     -7.93106334	      7.53984109	    -16.15436027
      2.62000000	      7.55318454	     -0.22978066	      0.92580171	     32.70556245	    -12.25654615	    -56.39460927	    -11.15446775	     -7.06024505	      8.04087080	    -16.18304248
      2.63000000	      7.70994477	     -0.22057745	      0.92440609	     32.21300962	    -12.57089405	    -52.88432303	    -12.04363342	     -6.60440948	      8.40848871	    -16.30800064
      2.64000000	      7.91404010	     -0.21112859	      0.92315441	     31.46951637	    -12.96478473	    -49.26633283	    -12.98170434	     -6.17440821	      8.86483757	    -16.45650769
      2.65000000	      8.07867816	     -0.20156415	      0.92163030	     30.65645277	    -13.26489740	    -45.64751251	    -14.00752925	     -5.67686747	      9.32043884	    -16.55857817
      2.66000000	      8.18842432	     -0.19187054	      0.92005358	     29.78915559	    -13.63962020	    -42.09504721	    -14.80393742	     -5.27228468	      9.66755318	    -16.61186806
      2.67000000	      8.26312854	     -0.18221637	      0.91830241	     28.94683034	    -13.96025924	    -38.83113485	    -15.65081816	     -4.79132956	     10.08540163	    -16.67098899
      2.68000000	      8.26825110	     -0.17259820	      0.91643150	     28.21184958	    -14.24199976	    -35.94064610	    -16.43065203	     -4.37797184	     10.45887358	    -16.66045893
      2.69000000	      8.24066011	     -0.16285660	      0.91459930	     27.55529108	    -14.53162646	    -33.58220016	    -17.14617433	     -4.09254072	     10.94180709	    -16.64257784
